%TF.GenerationSoftware,KiCad,Pcbnew,7.0.9-7.0.9~ubuntu22.04.1*%
%TF.CreationDate,2023-12-17T20:29:56+01:00*%
%TF.ProjectId,DC Load,4443204c-6f61-4642-9e6b-696361645f70,rev?*%
%TF.SameCoordinates,Original*%
%TF.FileFunction,Soldermask,Bot*%
%TF.FilePolarity,Negative*%
%FSLAX46Y46*%
G04 Gerber Fmt 4.6, Leading zero omitted, Abs format (unit mm)*
G04 Created by KiCad (PCBNEW 7.0.9-7.0.9~ubuntu22.04.1) date 2023-12-17 20:29:56*
%MOMM*%
%LPD*%
G01*
G04 APERTURE LIST*
G04 Aperture macros list*
%AMRoundRect*
0 Rectangle with rounded corners*
0 $1 Rounding radius*
0 $2 $3 $4 $5 $6 $7 $8 $9 X,Y pos of 4 corners*
0 Add a 4 corners polygon primitive as box body*
4,1,4,$2,$3,$4,$5,$6,$7,$8,$9,$2,$3,0*
0 Add four circle primitives for the rounded corners*
1,1,$1+$1,$2,$3*
1,1,$1+$1,$4,$5*
1,1,$1+$1,$6,$7*
1,1,$1+$1,$8,$9*
0 Add four rect primitives between the rounded corners*
20,1,$1+$1,$2,$3,$4,$5,0*
20,1,$1+$1,$4,$5,$6,$7,0*
20,1,$1+$1,$6,$7,$8,$9,0*
20,1,$1+$1,$8,$9,$2,$3,0*%
G04 Aperture macros list end*
%ADD10C,1.600000*%
%ADD11O,1.600000X1.600000*%
%ADD12C,2.000000*%
%ADD13R,1.800000X1.800000*%
%ADD14C,1.800000*%
%ADD15C,3.500000*%
%ADD16R,2.000000X1.905000*%
%ADD17O,2.000000X1.905000*%
%ADD18R,1.905000X2.000000*%
%ADD19O,1.905000X2.000000*%
%ADD20R,1.700000X1.700000*%
%ADD21O,1.700000X1.700000*%
%ADD22R,1.730000X2.030000*%
%ADD23O,1.730000X2.030000*%
%ADD24R,1.050000X1.500000*%
%ADD25O,1.050000X1.500000*%
%ADD26R,3.500000X3.500000*%
%ADD27RoundRect,0.750000X-1.000000X0.750000X-1.000000X-0.750000X1.000000X-0.750000X1.000000X0.750000X0*%
%ADD28RoundRect,0.875000X-0.875000X0.875000X-0.875000X-0.875000X0.875000X-0.875000X0.875000X0.875000X0*%
%ADD29R,1.600000X1.600000*%
%ADD30R,1.200000X1.200000*%
%ADD31C,1.200000*%
%ADD32R,2.200000X2.200000*%
%ADD33O,2.200000X2.200000*%
%ADD34C,3.000000*%
%ADD35R,3.000000X3.000000*%
G04 APERTURE END LIST*
D10*
%TO.C,R4*%
X154940000Y-71120000D03*
D11*
X142240000Y-71120000D03*
%TD*%
D12*
%TO.C,SW1*%
X151996000Y-118436000D03*
X158496000Y-118436000D03*
X151996000Y-122936000D03*
X158496000Y-122936000D03*
%TD*%
D13*
%TO.C,D3*%
X148844000Y-110744000D03*
D14*
X151384000Y-110744000D03*
%TD*%
D10*
%TO.C,R9*%
X143002000Y-88900000D03*
D11*
X155702000Y-88900000D03*
%TD*%
D13*
%TO.C,D2*%
X157221000Y-110744000D03*
D14*
X159761000Y-110744000D03*
%TD*%
D10*
%TO.C,R7*%
X126746000Y-75184000D03*
D11*
X139446000Y-75184000D03*
%TD*%
D15*
%TO.C,J5*%
X172720000Y-53340000D03*
%TD*%
D10*
%TO.C,R3*%
X123190000Y-71120000D03*
D11*
X135890000Y-71120000D03*
%TD*%
D15*
%TO.C,J4*%
X175260000Y-111760000D03*
%TD*%
D10*
%TO.C,R6*%
X125984000Y-94488000D03*
D11*
X138684000Y-94488000D03*
%TD*%
D10*
%TO.C,R10*%
X121412000Y-79832000D03*
D11*
X134112000Y-79832000D03*
%TD*%
D16*
%TO.C,Q3*%
X177292000Y-73660000D03*
D17*
X177292000Y-76200000D03*
X177292000Y-78740000D03*
%TD*%
D18*
%TO.C,Q1*%
X154940000Y-40640000D03*
D19*
X157480000Y-40640000D03*
X160020000Y-40640000D03*
%TD*%
D20*
%TO.C,J8*%
X88900000Y-121920000D03*
D21*
X91440000Y-121920000D03*
X93980000Y-121920000D03*
X96520000Y-121920000D03*
X99060000Y-121920000D03*
%TD*%
%TO.C,U2*%
X95435000Y-37970000D03*
X95435000Y-40510000D03*
D20*
X95435000Y-43050000D03*
D21*
X95435000Y-45590000D03*
X95435000Y-48130000D03*
X95435000Y-50670000D03*
X95435000Y-53210000D03*
D20*
X95435000Y-55750000D03*
D21*
X95435000Y-58290000D03*
X95435000Y-60830000D03*
X95435000Y-63370000D03*
X95435000Y-65910000D03*
D20*
X95435000Y-68450000D03*
D21*
X95435000Y-70990000D03*
X95435000Y-73530000D03*
X95435000Y-76070000D03*
X95435000Y-78610000D03*
D20*
X95435000Y-81150000D03*
D21*
X95435000Y-83690000D03*
X95435000Y-86230000D03*
X113215000Y-86230000D03*
X113215000Y-83690000D03*
D20*
X113215000Y-81150000D03*
D21*
X113215000Y-78610000D03*
X113215000Y-76070000D03*
X113215000Y-73530000D03*
X113215000Y-70990000D03*
D20*
X113215000Y-68450000D03*
D21*
X113215000Y-65910000D03*
X113215000Y-63370000D03*
X113215000Y-60830000D03*
X113215000Y-58290000D03*
D20*
X113215000Y-55750000D03*
D21*
X113215000Y-53210000D03*
X113215000Y-50670000D03*
X113215000Y-48130000D03*
X113215000Y-45590000D03*
D20*
X113215000Y-43050000D03*
D21*
X113215000Y-40510000D03*
X113215000Y-37970000D03*
X101785000Y-86000000D03*
D20*
X104325000Y-86000000D03*
D21*
X106865000Y-86000000D03*
%TD*%
D22*
%TO.C,M1*%
X144780000Y-53040000D03*
D23*
X147320000Y-53040000D03*
X149860000Y-53040000D03*
X152400000Y-53040000D03*
%TD*%
D15*
%TO.C,J7*%
X165100000Y-111760000D03*
%TD*%
D24*
%TO.C,Q5*%
X152146000Y-77576000D03*
D25*
X153416000Y-77576000D03*
X154686000Y-77576000D03*
%TD*%
D12*
%TO.C,SW2*%
X105260000Y-119960000D03*
X111760000Y-119960000D03*
X105260000Y-124460000D03*
X111760000Y-124460000D03*
%TD*%
D26*
%TO.C,J3*%
X127000000Y-49180000D03*
D27*
X127000000Y-43180000D03*
D28*
X122300000Y-46180000D03*
%TD*%
D29*
%TO.C,C3*%
X167640000Y-93980000D03*
D10*
X172640000Y-93980000D03*
%TD*%
D30*
%TO.C,C4*%
X118904000Y-58928000D03*
D31*
X120904000Y-58928000D03*
%TD*%
D21*
%TO.C,J1*%
X136388000Y-121920000D03*
X133848000Y-121920000D03*
D20*
X131308000Y-121920000D03*
D21*
X128768000Y-121920000D03*
%TD*%
D10*
%TO.C,R5*%
X125984000Y-98552000D03*
D11*
X138684000Y-98552000D03*
%TD*%
D15*
%TO.C,J6*%
X172720000Y-60960000D03*
%TD*%
D18*
%TO.C,Q2*%
X175260000Y-40640000D03*
D19*
X177800000Y-40640000D03*
X180340000Y-40640000D03*
%TD*%
D32*
%TO.C,D1*%
X167640000Y-104140000D03*
D33*
X177800000Y-104140000D03*
%TD*%
D34*
%TO.C,J2*%
X167640000Y-121920000D03*
D35*
X172720000Y-121920000D03*
%TD*%
D30*
%TO.C,C2*%
X131632888Y-54864000D03*
D31*
X133632888Y-54864000D03*
%TD*%
D10*
%TO.C,R8*%
X143002000Y-83312000D03*
D11*
X155702000Y-83312000D03*
%TD*%
D10*
%TO.C,R11*%
X134112000Y-84582000D03*
D11*
X121412000Y-84582000D03*
%TD*%
D18*
%TO.C,U1*%
X127000000Y-63500000D03*
D19*
X129540000Y-63500000D03*
X132080000Y-63500000D03*
%TD*%
D24*
%TO.C,Q4*%
X144780000Y-77724000D03*
D25*
X146050000Y-77724000D03*
X147320000Y-77724000D03*
%TD*%
M02*
