M48
; DRILL file {KiCad 7.0.9-7.0.9~ubuntu22.04.1} date So 17 Dez 2023 20:29:53
; FORMAT={-:-/ absolute / metric / decimal}
; #@! TF.CreationDate,2023-12-17T20:29:53+01:00
; #@! TF.GenerationSoftware,Kicad,Pcbnew,7.0.9-7.0.9~ubuntu22.04.1
; #@! TF.FileFunction,Plated,1,2,PTH
FMAT,2
METRIC
; #@! TA.AperFunction,Plated,PTH,ViaDrill
T1C0.400
; #@! TA.AperFunction,Plated,PTH,ComponentDrill
T2C0.600
; #@! TA.AperFunction,Plated,PTH,ComponentDrill
T3C0.750
; #@! TA.AperFunction,Plated,PTH,ComponentDrill
T4C0.800
; #@! TA.AperFunction,Plated,PTH,ComponentDrill
T5C0.900
; #@! TA.AperFunction,Plated,PTH,ComponentDrill
T6C1.000
; #@! TA.AperFunction,Plated,PTH,ComponentDrill
T7C1.020
; #@! TA.AperFunction,Plated,PTH,ComponentDrill
T8C1.100
; #@! TA.AperFunction,Plated,PTH,ComponentDrill
T9C1.520
; #@! TA.AperFunction,Plated,PTH,ComponentDrill
T10C2.000
%
G90
G05
T1
X102.616Y-115.316
X117.348Y-54.864
X120.396Y-67.781
X129.032Y-59.436
X129.54Y-88.9
X153.416Y-80.264
T2
X118.904Y-58.928
X120.904Y-58.928
X131.633Y-54.864
X133.633Y-54.864
T3
X144.78Y-77.724
X146.05Y-77.724
X147.32Y-77.724
X152.146Y-77.576
X153.416Y-77.576
X154.686Y-77.576
T4
X121.412Y-79.832
X121.412Y-84.582
X123.19Y-71.12
X125.984Y-94.488
X125.984Y-98.552
X126.746Y-75.184
X134.112Y-79.832
X134.112Y-84.582
X135.89Y-71.12
X138.684Y-94.488
X138.684Y-98.552
X139.446Y-75.184
X142.24Y-71.12
X143.002Y-83.312
X143.002Y-88.9
X154.94Y-71.12
X155.702Y-83.312
X155.702Y-88.9
X167.64Y-93.98
X172.64Y-93.98
T5
X148.844Y-110.744
X151.384Y-110.744
X157.221Y-110.744
X159.761Y-110.744
T6
X88.9Y-121.92
X91.44Y-121.92
X93.98Y-121.92
X96.52Y-121.92
X99.06Y-121.92
X128.768Y-121.92
X131.308Y-121.92
X133.848Y-121.92
X136.388Y-121.92
T7
X95.435Y-37.97
X95.435Y-40.51
X95.435Y-43.05
X95.435Y-45.59
X95.435Y-48.13
X95.435Y-50.67
X95.435Y-53.21
X95.435Y-55.75
X95.435Y-58.29
X95.435Y-60.83
X95.435Y-63.37
X95.435Y-65.91
X95.435Y-68.45
X95.435Y-70.99
X95.435Y-73.53
X95.435Y-76.07
X95.435Y-78.61
X95.435Y-81.15
X95.435Y-83.69
X95.435Y-86.23
X101.785Y-86.0
X104.325Y-86.0
X106.865Y-86.0
X113.215Y-37.97
X113.215Y-40.51
X113.215Y-43.05
X113.215Y-45.59
X113.215Y-48.13
X113.215Y-50.67
X113.215Y-53.21
X113.215Y-55.75
X113.215Y-58.29
X113.215Y-60.83
X113.215Y-63.37
X113.215Y-65.91
X113.215Y-68.45
X113.215Y-70.99
X113.215Y-73.53
X113.215Y-76.07
X113.215Y-78.61
X113.215Y-81.15
X113.215Y-83.69
X113.215Y-86.23
X144.78Y-53.04
X147.32Y-53.04
X149.86Y-53.04
X152.4Y-53.04
T8
X105.26Y-119.96
X105.26Y-124.46
X111.76Y-119.96
X111.76Y-124.46
X127.0Y-63.5
X129.54Y-63.5
X132.08Y-63.5
X151.996Y-118.436
X151.996Y-122.936
X154.94Y-40.64
X157.48Y-40.64
X158.496Y-118.436
X158.496Y-122.936
X160.02Y-40.64
X167.64Y-104.14
X175.26Y-40.64
X177.292Y-73.66
X177.292Y-76.2
X177.292Y-78.74
X177.8Y-40.64
X177.8Y-104.14
X180.34Y-40.64
T9
X167.64Y-121.92
X172.72Y-121.92
T10
X165.1Y-111.76
X172.72Y-53.34
X172.72Y-60.96
X175.26Y-111.76
T6
G00X122.3Y-45.18
M15
G01X122.3Y-47.18
M16
G05
G00X128.0Y-43.18
M15
G01X126.0Y-43.18
M16
G05
G00X128.0Y-49.18
M15
G01X126.0Y-49.18
M16
G05
T0
M30
